<?xml version="1.0" encoding="UTF-8"?>
<svg version="1.1" xmlns="http://www.w3.org/2000/svg" width="178" height="178">
<path d="M0 0 C10.56 0 21.12 0 32 0 C34.42135076 4.84270152 36.5482096 9.13319679 38.3671875 14.125 C38.77541748 15.23657471 39.18364746 16.34814941 39.60424805 17.4934082 C40.23327026 19.22917114 40.23327026 19.22917114 40.875 21 C41.75321124 23.41040958 42.63211517 25.82056691 43.51171875 28.23046875 C43.93501465 29.3911084 44.35831055 30.55174805 44.79443359 31.74755859 C45.83404192 34.55226944 46.90860898 37.33625855 48.01953125 40.11328125 C48.30650879 40.83837891 48.59348633 41.56347656 48.88916016 42.31054688 C49.62879744 44.1652948 50.382175 46.01454738 51.13671875 47.86328125 C52.64724734 53.35176296 50.81241667 57.9022919 48.7421875 63.04296875 C48.28432861 64.19120117 47.82646973 65.33943359 47.35473633 66.52246094 C46.86642334 67.73192383 46.37811035 68.94138672 45.875 70.1875 C44.87298508 72.69529873 43.87565209 75.20494681 42.87890625 77.71484375 C42.6319249 78.33549713 42.38494354 78.95615051 42.13047791 79.59561157 C38.92494625 87.67252184 35.96421174 95.83194987 33 104 C22.11 104 11.22 104 0 104 C1.94663536 97.51121546 3.94132327 91.20538044 6.3203125 84.88671875 C6.94402482 83.21029182 7.56772231 81.53385937 8.19140625 79.85742188 C9.16252883 77.25896614 10.13492829 74.6609925 11.10791016 72.06323242 C12.05682323 69.52637635 13.00122685 66.98787448 13.9453125 64.44921875 C14.23697296 63.67519211 14.52863342 62.90116547 14.82913208 62.10368347 C17.84512592 54.48026787 17.84512592 54.48026787 16.69921875 46.61328125 C16.38597656 45.76934814 16.07273437 44.92541504 15.75 44.0559082 C15.399375 43.1505835 15.04875 42.24525879 14.6875 41.3125 C14.33300781 40.36656982 13.97851562 39.42063965 13.61328125 38.44604492 C11.52773181 32.90720318 9.37855247 27.39287506 7.23828125 21.875 C6.78300049 20.69897217 6.32771973 19.52294434 5.85864258 18.3112793 C4.96231128 16.00304501 4.05992937 13.69714995 3.15112305 11.39379883 C2.74031494 10.34216553 2.32950684 9.29053223 1.90625 8.20703125 C1.53822266 7.2735083 1.17019531 6.33998535 0.79101562 5.37817383 C0 3 0 3 0 0 Z " fill="#2E8EC3" transform="translate(4,38)"/>
<path d="M0 0 C0.66 0.66 1.32 1.32 2 2 C1.87928876 9.83760815 -1.56668573 15.03452603 -5.58203125 21.55273438 C-8.24776954 25.83815053 -8.24776954 25.83815053 -8.93359375 30.6953125 C-8.62550781 31.45585938 -8.31742188 32.21640625 -8 33 C-7.67902344 33.93199219 -7.35804687 34.86398438 -7.02734375 35.82421875 C-6.48787109 37.24154297 -6.48787109 37.24154297 -5.9375 38.6875 C-4 43.78291815 -4 43.78291815 -4 46 C-2.85329616 45.14700232 -1.70771066 44.29250133 -0.5625 43.4375 C0.16453125 42.89609375 0.8915625 42.3546875 1.640625 41.796875 C3.2338438 40.58349644 4.80665901 39.34292014 6.359375 38.078125 C7.12765625 37.45421875 7.8959375 36.8303125 8.6875 36.1875 C9.39261719 35.60355469 10.09773438 35.01960938 10.82421875 34.41796875 C13.40825631 32.73393709 14.90684015 32.1395749 18 32 C20.56208451 32.84418914 22.82544698 33.73689577 25.25 34.875 C25.93731201 35.18800049 26.62462402 35.50100098 27.33276367 35.82348633 C32.72216491 38.31656337 38.03668193 40.96313944 43.3125 43.6875 C44.0353418 44.05536621 44.75818359 44.42323242 45.50292969 44.80224609 C52.17025062 48.33303288 52.17025062 48.33303288 54 52 C53.67 52.99 53.34 53.98 53 55 C51.6696875 54.2884375 51.6696875 54.2884375 50.3125 53.5625 C43.59982607 50.39614437 36.59989446 50.69916353 29.3046875 50.48242188 C24.807878 50.30456299 21.08627077 50.10272683 17 48 C15.35 49.65 13.7 51.3 12 53 C13.98 53.495 13.98 53.495 16 54 C15.09378906 54.49628906 14.18757813 54.99257812 13.25390625 55.50390625 C6.72467167 59.127968 0.55880878 62.79486085 -5.23046875 67.5546875 C-8.03250483 69.84332624 -9.66030683 70.96154417 -13.3125 71.375 C-17.70210995 70.92859899 -19.64298617 69.82294345 -23 67 C-25.30308723 63.58807277 -26.71104063 60.25655509 -27.99609375 56.359375 C-32.38703294 43.02126238 -32.38703294 43.02126238 -42.03125 33.49609375 C-46.2271819 31.52305879 -50.54917842 30.11497403 -54.97607422 28.75927734 C-57.71584748 27.73144926 -59.27463126 26.34190051 -61 24 C-62 21 -62 21 -60.93359375 18.51953125 C-58.60237508 15.48188268 -56.50367866 14.33365098 -53.0625 12.6875 C-52.02222656 12.17574219 -50.98195313 11.66398437 -49.91015625 11.13671875 C-47 10 -47 10 -43 10 C-42.75 16.625 -42.75 16.625 -45 20 C-38.3298936 23.07851065 -32.32747166 23.91075919 -25 23 C-19.53967789 20.4720731 -14.7173831 15.4347662 -12 10 C-12.763125 9.938125 -13.52625 9.87625 -14.3125 9.8125 C-17 9 -17 9 -18.8125 6.5625 C-20 4 -20 4 -20 2 C-13.24690051 0.58626702 -6.90929597 -0.43868546 0 0 Z " fill="#03588F" transform="translate(110,27)"/>
<path d="M0 0 C4.082004 2.81291942 7.19140026 5.45018383 9.5 9.875 C10.15139126 13.94619538 10.1644927 17.88768256 10 22 C9.0925 21.46375 8.185 20.9275 7.25 20.375 C6.60160156 20.01664063 5.95320313 19.65828125 5.28515625 19.2890625 C3.66112372 18.37294159 2.06686585 17.40314352 0.49609375 16.3984375 C-9.22481299 10.69298181 -19.64865231 10.11249181 -30.46875 12.890625 C-40.20189101 16.65343725 -47.9205431 22.87428516 -55.4375 29.9375 C-69.35838463 43.00777615 -85.91822275 54.48002247 -105.625 54.1875 C-106.45773438 54.18685547 -107.29046875 54.18621094 -108.1484375 54.18554688 C-112.22194273 54.15635775 -116.02750008 54.01339284 -120 53 C-119.55958181 48.86006904 -118.81041326 45.19013193 -117.45703125 41.24609375 C-117.18479736 40.44743896 -116.91256348 39.64878418 -116.63208008 38.82592773 C-116.42349365 38.22337158 -116.21490723 37.62081543 -116 37 C-114.69546875 36.98582031 -113.3909375 36.97164062 -112.046875 36.95703125 C-92.91233382 36.53177849 -79.74818646 30.35977228 -65.75 17.1875 C-48.02567292 0.65168465 -23.67656969 -14.36474807 0 0 Z " fill="#03588F" transform="translate(165,87)"/>
<path d="M0 0 C-1.12451727 2.9719385 -2.22293791 5.33440687 -4 8 C-4.83569337 12.99197369 -5.10051855 17.89262406 -2.71484375 22.4609375 C2.18499296 28.46574878 7.05439777 30.57436869 14.62109375 31.390625 C18.08090942 31.65542459 21.53315947 31.85879442 25 32 C24.125 38.875 24.125 38.875 23 40 C20.2001028 40.09519368 17.42493826 40.12553944 14.62475586 40.11352539 C13.30780479 40.11374443 13.30780479 40.11374443 11.96424866 40.1139679 C9.04775565 40.11326844 6.13132567 40.10547455 3.21484375 40.09765625 C1.19845108 40.09579218 -0.81794204 40.09436823 -2.83433533 40.09336853 C-8.15265138 40.08954244 -13.4709403 40.07971139 -18.78924561 40.06866455 C-24.21170688 40.05845238 -29.63417252 40.05387133 -35.05664062 40.04882812 C-45.70443903 40.0380892 -56.35221726 40.02101169 -67 40 C-67 39.34 -67 38.68 -67 38 C-65.30961298 36.95531036 -63.56894455 35.99184776 -61.8125 35.0625 C-52.41123195 29.7362221 -44.74280235 22.52254644 -36.8125 15.25 C-25.71273841 5.24231173 -15.32194805 -1.06690547 0 0 Z " fill="#03588F" transform="translate(150,103)"/>
<path d="M0 0 C10.56 0 21.12 0 32 0 C34.42135076 4.84270152 36.5482096 9.13319679 38.3671875 14.125 C38.77541748 15.23657471 39.18364746 16.34814941 39.60424805 17.4934082 C40.23327026 19.22917114 40.23327026 19.22917114 40.875 21 C41.75321124 23.41040958 42.63211517 25.82056691 43.51171875 28.23046875 C43.93501465 29.3911084 44.35831055 30.55174805 44.79443359 31.74755859 C45.83404192 34.55226944 46.90860898 37.33625855 48.01953125 40.11328125 C48.30650879 40.83837891 48.59348633 41.56347656 48.88916016 42.31054688 C49.62879744 44.1652948 50.382175 46.01454738 51.13671875 47.86328125 C52.64724734 53.35176296 50.81241667 57.9022919 48.7421875 63.04296875 C48.28432861 64.19120117 47.82646973 65.33943359 47.35473633 66.52246094 C46.86642334 67.73192383 46.37811035 68.94138672 45.875 70.1875 C44.87298508 72.69529873 43.87565209 75.20494681 42.87890625 77.71484375 C42.6319249 78.33549713 42.38494354 78.95615051 42.13047791 79.59561157 C38.92494625 87.67252184 35.96421174 95.83194987 33 104 C22.11 104 11.22 104 0 104 C1.94663536 97.51121546 3.94132327 91.20538044 6.3203125 84.88671875 C6.94402482 83.21029182 7.56772231 81.53385937 8.19140625 79.85742188 C9.16252883 77.25896614 10.13492829 74.6609925 11.10791016 72.06323242 C12.05682323 69.52637635 13.00122685 66.98787448 13.9453125 64.44921875 C14.23697296 63.67519211 14.52863342 62.90116547 14.82913208 62.10368347 C17.84512592 54.48026787 17.84512592 54.48026787 16.69921875 46.61328125 C16.38597656 45.76934814 16.07273437 44.92541504 15.75 44.0559082 C15.399375 43.1505835 15.04875 42.24525879 14.6875 41.3125 C14.33300781 40.36656982 13.97851562 39.42063965 13.61328125 38.44604492 C11.52773181 32.90720318 9.37855247 27.39287506 7.23828125 21.875 C6.78300049 20.69897217 6.32771973 19.52294434 5.85864258 18.3112793 C4.96231128 16.00304501 4.05992937 13.69714995 3.15112305 11.39379883 C2.74031494 10.34216553 2.32950684 9.29053223 1.90625 8.20703125 C1.53822266 7.2735083 1.17019531 6.33998535 0.79101562 5.37817383 C0 3 0 3 0 0 Z M6 4 C7.53674552 12.65379821 10.77022643 20.56094237 14 28.6875 C14.82364277 30.7758501 15.64539411 32.86492831 16.46582031 34.95454407 C17.20824296 36.84300367 17.95553975 38.72954495 18.703125 40.6159668 C19.34507813 42.29106323 19.34507813 42.29106323 20 44 C20.40734375 44.99104736 20.8146875 45.98209473 21.234375 47.00317383 C22.75514486 52.95580456 20.75657162 58.19367335 18.671875 63.7890625 C18.44099182 64.41420746 18.21010864 65.03935242 17.972229 65.68344116 C17.23797961 67.66644529 16.49412247 69.6456827 15.75 71.625 C15.26630482 72.92815462 14.78322752 74.23153875 14.30078125 75.53515625 C11.26582055 83.7153839 8.14519091 91.86153156 5 100 C13.25 100 21.5 100 30 100 C33.30502831 91.66524188 33.30502831 91.66524188 36.56030273 83.31103516 C38.74429242 77.65782345 40.93111739 72.03647384 43.5 66.54296875 C47.07454364 58.670615 49.02789883 52.82183464 46.0625 44.4375 C45.14905153 42.152842 44.17371767 39.90847852 43.16210938 37.66552734 C41.81690082 34.58002588 40.63153851 31.4537019 39.453125 28.30078125 C34.79006783 15.40565215 34.79006783 15.40565215 29 3 C25.9166866 2.97088679 22.83340875 2.95316318 19.75 2.9375 C18.44095703 2.92493164 18.44095703 2.92493164 17.10546875 2.91210938 C16.26113281 2.90888672 15.41679687 2.90566406 14.546875 2.90234375 C13.77182617 2.89710693 12.99677734 2.89187012 12.19824219 2.88647461 C10.00716402 2.99963002 8.10362139 3.39447552 6 4 Z " fill="#04588F" transform="translate(4,38)"/>
<path d="M0 0 C2.62766354 2.14105918 3.54888489 4.19886312 4.6875 7.375 C4.61716983 11.45414966 4.34443085 13.56972992 1.75 16.75 C-1.85060922 19.58684363 -4.5544312 19.7867359 -9.046875 19.70703125 C-11.3125 19.375 -11.3125 19.375 -14.375 17.4375 C-16.97134755 13.33359581 -17.26509938 10.11225096 -16.3125 5.375 C-12.29540384 -1.05235385 -7.10354415 -1.9198768 0 0 Z " fill="#03588F" transform="translate(85.3125,27.625)"/>
<path d="" fill="#326A97" transform="translate(0,0)"/>
</svg>
