<?xml version="1.0" encoding="UTF-8"?>
<svg version="1.1" xmlns="http://www.w3.org/2000/svg" width="288" height="63">
<path d="M0 0 C0.79792969 0.00386719 1.59585938 0.00773437 2.41796875 0.01171875 C3.61486328 0.00591797 3.61486328 0.00591797 4.8359375 0 C10.79136108 0.01011108 10.79136108 0.01011108 11.91796875 1.13671875 C11.61727523 4.97056109 11.13486333 7.73629798 9.29296875 11.13671875 C7.56992145 14.89609468 8.04397737 17.16403066 8.91796875 21.13671875 C9.43746094 20.69199219 9.95695312 20.24726563 10.4921875 19.7890625 C11.18957031 19.22316406 11.88695313 18.65726563 12.60546875 18.07421875 C13.63220703 17.22150391 13.63220703 17.22150391 14.6796875 16.3515625 C16.91796875 15.13671875 16.91796875 15.13671875 19.30078125 15.26953125 C22.39457361 16.29463857 25.1994547 17.59774702 28.10546875 19.07421875 C29.15089844 19.59886719 30.19632813 20.12351562 31.2734375 20.6640625 C33.91796875 22.13671875 33.91796875 22.13671875 35.91796875 24.13671875 C36.04171875 24.75546875 36.16546875 25.37421875 36.29296875 26.01171875 C36.76367968 28.33037129 36.76367968 28.33037129 38.98046875 29.88671875 C41.88200109 33.25624018 41.20812589 35.78436158 40.91796875 40.13671875 C39.96921875 39.49734375 39.02046875 38.85796875 38.04296875 38.19921875 C33.58826227 35.63024691 29.01498162 35.09012814 23.91796875 35.13671875 C22.92796875 35.63171875 22.92796875 35.63171875 21.91796875 36.13671875 C24.55796875 36.13671875 27.19796875 36.13671875 29.91796875 36.13671875 C29.58796875 37.12671875 29.25796875 38.11671875 28.91796875 39.13671875 C28.40919282 43.7427033 28.40919282 43.7427033 30.140625 47.8125 C32.35912394 49.46540361 33.86475097 49.62561601 36.60546875 49.82421875 C37.41371094 49.88996094 38.22195312 49.95570312 39.0546875 50.0234375 C39.66957031 50.06082031 40.28445312 50.09820312 40.91796875 50.13671875 C40.91796875 51.78671875 40.91796875 53.43671875 40.91796875 55.13671875 C26.72796875 55.13671875 12.53796875 55.13671875 -2.08203125 55.13671875 C-2.08203125 54.47671875 -2.08203125 53.81671875 -2.08203125 53.13671875 C-3.56703125 53.63171875 -3.56703125 53.63171875 -5.08203125 54.13671875 C-7.65468943 54.20700996 -10.19844556 54.23042707 -12.76953125 54.19921875 C-13.47142578 54.19470703 -14.17332031 54.19019531 -14.89648438 54.18554688 C-16.62503663 54.17378802 -18.3535449 54.15585329 -20.08203125 54.13671875 C-19.20703125 47.38671875 -19.20703125 47.38671875 -18.08203125 45.13671875 C-15.7890625 44.828125 -15.7890625 44.828125 -12.89453125 44.69921875 C-8.27443961 44.37521232 -5.12076431 43.51853569 -1.08203125 41.13671875 C-0.42203125 41.13671875 0.23796875 41.13671875 0.91796875 41.13671875 C0.91796875 40.47671875 0.91796875 39.81671875 0.91796875 39.13671875 C2.54423279 37.75439432 4.21046895 36.4173436 5.91796875 35.13671875 C5.19609375 35.13671875 4.47421875 35.13671875 3.73046875 35.13671875 C-0.63158132 33.58576761 -2.07434361 30.15926434 -4.08203125 26.13671875 C-4.45328125 24.91984375 -4.82453125 23.70296875 -5.20703125 22.44921875 C-7.77335888 17.91537328 -10.90213751 17.10059116 -15.68359375 15.375 C-18.08203125 14.13671875 -18.08203125 14.13671875 -19.015625 12.12890625 C-19.08203125 10.13671875 -19.08203125 10.13671875 -17.51953125 7.94921875 C-15.08203125 6.13671875 -15.08203125 6.13671875 -11.95703125 5.63671875 C-11.00828125 5.47171875 -10.05953125 5.30671875 -9.08203125 5.13671875 C-7.70575185 3.21907701 -7.70575185 3.21907701 -7.08203125 1.13671875 C-5.19650595 -0.74880655 -2.50434294 0.00425186 0 0 Z M1.91796875 6.13671875 C2.24796875 6.79671875 2.57796875 7.45671875 2.91796875 8.13671875 C3.24796875 7.47671875 3.57796875 6.81671875 3.91796875 6.13671875 C3.25796875 6.13671875 2.59796875 6.13671875 1.91796875 6.13671875 Z M-9.08203125 8.13671875 C-9.08203125 9.12671875 -9.08203125 10.11671875 -9.08203125 11.13671875 C-8.09203125 10.80671875 -7.10203125 10.47671875 -6.08203125 10.13671875 C-7.07203125 9.47671875 -8.06203125 8.81671875 -9.08203125 8.13671875 Z M-6.08203125 11.13671875 C-6.08203125 11.46671875 -6.08203125 11.79671875 -6.08203125 12.13671875 C-4.43203125 12.13671875 -2.78203125 12.13671875 -1.08203125 12.13671875 C-1.08203125 11.80671875 -1.08203125 11.47671875 -1.08203125 11.13671875 C-2.73203125 11.13671875 -4.38203125 11.13671875 -6.08203125 11.13671875 Z M17.91796875 24.13671875 C18.90796875 25.62171875 18.90796875 25.62171875 19.91796875 27.13671875 C25.85796875 26.64171875 25.85796875 26.64171875 31.91796875 26.13671875 C31.91796875 25.80671875 31.91796875 25.47671875 31.91796875 25.13671875 C24.98796875 24.64171875 24.98796875 24.64171875 17.91796875 24.13671875 Z M10.91796875 42.13671875 C10.58796875 42.79671875 10.25796875 43.45671875 9.91796875 44.13671875 C10.90796875 43.80671875 11.89796875 43.47671875 12.91796875 43.13671875 C12.25796875 42.80671875 11.59796875 42.47671875 10.91796875 42.13671875 Z " fill="#FEFEFE" transform="translate(39.08203125,0.86328125)"/>
<path d="M0 0 C5.28 0 10.56 0 16 0 C18.63238097 4.87477957 20.8214756 9.82778577 22.8125 15 C23.25207031 16.134375 23.69164063 17.26875 24.14453125 18.4375 C26.06896385 26.4515755 23.15531576 32.7640827 19.9375 40 C19.56044922 40.87011719 19.18339844 41.74023438 18.79492188 42.63671875 C17.87248326 44.7618305 16.93752201 46.88149925 16 49 C10.72 49 5.44 49 0 49 C1.11911955 42.28528269 1.11911955 42.28528269 2.4453125 39.23046875 C7.25161983 27.70297371 7.63084929 21.72494565 2.9375 10.125 C2.38426931 8.83587109 1.83089258 7.54680484 1.27734375 6.2578125 C0 3 0 3 0 0 Z " fill="#FFFFFF" transform="translate(0,7)"/>
<path d="M0 0 C1.98 0 3.96 0 6 0 C10.21735778 8.80793307 13.65430679 17.83670965 17 27 C17.33 26.34 17.66 25.68 18 25 C21.63 25.33 25.26 25.66 29 26 C29 25.34 29 24.68 29 24 C28.28972656 23.65066406 27.57945313 23.30132812 26.84765625 22.94140625 C25.92855469 22.48636719 25.00945312 22.03132813 24.0625 21.5625 C23.14597656 21.11003906 22.22945312 20.65757813 21.28515625 20.19140625 C19 19 19 19 18 18 C17.71690083 15.07464189 17.52021725 12.84442628 18 10 C20.33072836 7.51388975 22.09846391 7.07464948 25.453125 6.796875 C29.26596233 6.72998312 32.36150856 6.78716952 36 8 C35.67 9.98 35.34 11.96 35 14 C29.555 13.505 29.555 13.505 24 13 C24 13.66 24 14.32 24 15 C24.61488281 15.18175781 25.22976562 15.36351562 25.86328125 15.55078125 C26.67152344 15.80214844 27.47976562 16.05351563 28.3125 16.3125 C29.11300781 16.55613281 29.91351563 16.79976562 30.73828125 17.05078125 C33.17406078 18.07305142 34.41821257 18.89261865 36 21 C36.43359375 22.9375 36.43359375 22.9375 36.4375 25 C36.45683594 25.680625 36.47617188 26.36125 36.49609375 27.0625 C35.77984254 29.85982755 34.42649152 30.51334858 32 32 C29.61816406 32.34057617 29.61816406 32.34057617 27.015625 32.29296875 C26.08105469 32.28330078 25.14648438 32.27363281 24.18359375 32.26367188 C23.21550781 32.23853516 22.24742188 32.21339844 21.25 32.1875 C20.26644531 32.17396484 19.28289062 32.16042969 18.26953125 32.14648438 C15.84579585 32.11118726 13.42317855 32.06188054 11 32 C10.01 29.36 9.02 26.72 8 24 C4.7 23.67 1.4 23.34 -2 23 C-2.99 25.97 -3.98 28.94 -5 32 C-6.98 32 -8.96 32 -11 32 C-10.40133445 27.62888213 -9.32030556 23.83166739 -7.71484375 19.7265625 C-7.26689453 18.57285156 -6.81894531 17.41914062 -6.35742188 16.23046875 C-5.88884766 15.04066406 -5.42027344 13.85085937 -4.9375 12.625 C-4.46505859 11.41199219 -3.99261719 10.19898438 -3.50585938 8.94921875 C-2.34236751 5.96409821 -1.17359708 2.98115892 0 0 Z M3 10 C1.5393715 12.64738916 1 13.89448334 1 17 C2.65 17 4.3 17 6 17 C5.34 14.69 4.68 12.38 4 10 C3.67 10 3.34 10 3 10 Z " fill="#FFFFFF" transform="translate(93,24)"/>
<path d="M0 0 C18.47368421 0 18.47368421 0 23 4 C27.06249792 9.2419328 26.75630395 15.66064331 26 22 C25.04885569 25.06300711 24.08734551 26.41828318 22 29 C16 32 16 32 0 32 C0 21.44 0 10.88 0 0 Z M6 6 C6 12.93 6 19.86 6 27 C15.79734666 26.19630842 15.79734666 26.19630842 19 21 C20.06768444 16.8817886 20.26198333 14.69425582 18.75 10.6875 C17.11682876 7.79291751 17.11682876 7.79291751 14 6 C11.36 6 8.72 6 6 6 Z " fill="#FFFFFF" transform="translate(192,24)"/>
<path d="M0 0 C1.98 0 3.96 0 6 0 C6.33 5.28 6.66 10.56 7 16 C8.485 14.2675 8.485 14.2675 10 12.5 C12.08771592 10.37812922 13.30813496 9.14318598 16.24609375 8.53515625 C18.4375 8.5625 18.4375 8.5625 22 9 C21.60167969 9.44730469 21.20335937 9.89460938 20.79296875 10.35546875 C19.99826172 11.26232422 19.99826172 11.26232422 19.1875 12.1875 C18.66542969 12.77917969 18.14335937 13.37085938 17.60546875 13.98046875 C15.83473147 16.20789253 14.41729471 18.53569479 13 21 C13.6496875 21.85464844 14.299375 22.70929687 14.96875 23.58984375 C15.81262529 24.70563442 16.6563685 25.82152499 17.5 26.9375 C17.92925781 27.50146484 18.35851562 28.06542969 18.80078125 28.64648438 C22 32.88671875 22 32.88671875 22 34 C16.89819189 34.70369767 16.89819189 34.70369767 14 34 C12.04355231 32.09884322 10.6808311 30.15092523 9.2265625 27.84765625 C8.12448019 25.85480901 8.12448019 25.85480901 6 25 C6 27.97 6 30.94 6 34 C4.02 34 2.04 34 0 34 C0 22.78 0 11.56 0 0 Z " fill="#FFFFFF" transform="translate(266,22)"/>
<path d="M0 0 C3.22874477 2.085231 4.67599529 3.54319688 5.51953125 7.3359375 C5.78116752 9.54763613 5.90037802 11.77510903 6 14 C1.05 14.33 -3.9 14.66 -9 15 C-5.63621148 19.24179466 -5.63621148 19.24179466 -2.421875 19.171875 C-1.54015625 19.03265625 -0.6584375 18.8934375 0.25 18.75 C1.14203125 18.62109375 2.0340625 18.4921875 2.953125 18.359375 C3.62859375 18.24078125 4.3040625 18.1221875 5 18 C5 19.98 5 21.96 5 24 C0.57389313 26.21305343 -5.19496405 25.54778601 -10 25 C-13.0597372 23.34341501 -14.4495788 21.10084241 -16 18 C-16.42054103 13.43066001 -16.56125534 9.31895005 -14.75 5.0625 C-10.42079721 -0.03977471 -6.64160814 -1.21940399 0 0 Z M-8 6 C-8.33 6.99 -8.66 7.98 -9 9 C-6.36 9 -3.72 9 -1 9 C-1.33 8.01 -1.66 7.02 -2 6 C-3.98 6 -5.96 6 -8 6 Z " fill="#FFFFFF" transform="translate(237,31)"/>
<path d="M0 0 C3.22874477 2.085231 4.67599529 3.54319688 5.51953125 7.3359375 C5.78116752 9.54763613 5.90037802 11.77510903 6 14 C1.05 14.33 -3.9 14.66 -9 15 C-5.63621148 19.24179466 -5.63621148 19.24179466 -2.421875 19.171875 C-1.54015625 19.03265625 -0.6584375 18.8934375 0.25 18.75 C1.14203125 18.62109375 2.0340625 18.4921875 2.953125 18.359375 C3.62859375 18.24078125 4.3040625 18.1221875 5 18 C5 19.98 5 21.96 5 24 C0.57389313 26.21305343 -5.19496405 25.54778601 -10 25 C-13.0597372 23.34341501 -14.4495788 21.10084241 -16 18 C-16.42054103 13.43066001 -16.56125534 9.31895005 -14.75 5.0625 C-10.42079721 -0.03977471 -6.64160814 -1.21940399 0 0 Z M-8 6 C-8.33 6.99 -8.66 7.98 -9 9 C-6.36 9 -3.72 9 -1 9 C-1.33 8.01 -1.66 7.02 -2 6 C-3.98 6 -5.96 6 -8 6 Z " fill="#FFFFFF" transform="translate(167,31)"/>
<path d="M0 0 C-0.33 1.98 -0.66 3.96 -1 6 C-4.63 5.67 -8.26 5.34 -12 5 C-12 5.66 -12 6.32 -12 7 C-11.38511719 7.18175781 -10.77023438 7.36351562 -10.13671875 7.55078125 C-8.92435547 7.92783203 -8.92435547 7.92783203 -7.6875 8.3125 C-6.48673828 8.67794922 -6.48673828 8.67794922 -5.26171875 9.05078125 C-2.82593922 10.07305142 -1.58178743 10.89261865 0 13 C0.43359375 14.9375 0.43359375 14.9375 0.4375 17 C0.46650391 18.0209375 0.46650391 18.0209375 0.49609375 19.0625 C0 21 0 21 -1.609375 22.734375 C-4.77246112 24.40895 -7.12675415 24.32974795 -10.6875 24.25 C-11.84636719 24.23453125 -13.00523437 24.2190625 -14.19921875 24.203125 C-17 24 -17 24 -18 23 C-18.04080783 21.00041636 -18.04254356 18.99954746 -18 17 C-14.37 17.33 -10.74 17.66 -7 18 C-7 17.34 -7 16.68 -7 16 C-7.71027344 15.65066406 -8.42054688 15.30132812 -9.15234375 14.94140625 C-10.07144531 14.48636719 -10.99054688 14.03132813 -11.9375 13.5625 C-12.85402344 13.11003906 -13.77054688 12.65757813 -14.71484375 12.19140625 C-17 11 -17 11 -18 10 C-18.28309917 7.07464189 -18.47978275 4.84442628 -18 2 C-13.6569347 -2.63260298 -5.62976167 -1.87658722 0 0 Z " fill="#FFFFFF" transform="translate(263,32)"/>
<path d="M0 0 C-0.33 1.98 -0.66 3.96 -1 6 C-4.63 5.67 -8.26 5.34 -12 5 C-12 5.66 -12 6.32 -12 7 C-11.38511719 7.18175781 -10.77023438 7.36351562 -10.13671875 7.55078125 C-8.92435547 7.92783203 -8.92435547 7.92783203 -7.6875 8.3125 C-6.48673828 8.67794922 -6.48673828 8.67794922 -5.26171875 9.05078125 C-2.82593922 10.07305142 -1.58178743 10.89261865 0 13 C0.43359375 14.9375 0.43359375 14.9375 0.4375 17 C0.46650391 18.0209375 0.46650391 18.0209375 0.49609375 19.0625 C0 21 0 21 -1.609375 22.734375 C-4.77246112 24.40895 -7.12675415 24.32974795 -10.6875 24.25 C-11.84636719 24.23453125 -13.00523437 24.2190625 -14.19921875 24.203125 C-17 24 -17 24 -18 23 C-18.04080783 21.00041636 -18.04254356 18.99954746 -18 17 C-14.37 17.33 -10.74 17.66 -7 18 C-7 17.34 -7 16.68 -7 16 C-7.71027344 15.65066406 -8.42054688 15.30132812 -9.15234375 14.94140625 C-10.07144531 14.48636719 -10.99054688 14.03132813 -11.9375 13.5625 C-12.85402344 13.11003906 -13.77054688 12.65757813 -14.71484375 12.19140625 C-17 11 -17 11 -18 10 C-18.28309917 7.07464189 -18.47978275 4.84442628 -18 2 C-13.6569347 -2.63260298 -5.62976167 -1.87658722 0 0 Z " fill="#FFFFFF" transform="translate(149,32)"/>
<path d="M0 0 C1.65 0 3.3 0 5 0 C5 1.65 5 3.3 5 5 C6.98 5 8.96 5 11 5 C11 6.65 11 8.3 11 10 C9.02 10 7.04 10 5 10 C5.33 14.62 5.66 19.24 6 24 C7.65 24 9.3 24 11 24 C11 25.98 11 27.96 11 30 C9.56344146 30.08131463 8.1255517 30.13933559 6.6875 30.1875 C5.48673828 30.23970703 5.48673828 30.23970703 4.26171875 30.29296875 C2 30 2 30 0.26953125 28.67578125 C-2.52704237 24.98430407 -2.10327342 21.25680231 -2.0625 16.8125 C-2.05347656 15.54019531 -2.04445312 14.26789062 -2.03515625 12.95703125 C-2.02355469 11.98121094 -2.01195312 11.00539063 -2 10 C-2.99 10 -3.98 10 -5 10 C-5 8.68 -5 7.36 -5 6 C-3.68 5.67 -2.36 5.34 -1 5 C-0.67 3.35 -0.34 1.7 0 0 Z " fill="#FFFFFF" transform="translate(178,26)"/>
</svg>
